# Blender v3.2.1 OBJ File: ''
# www.blender.org
mtllib box.mtl
o Cube
v 2.984616 2.977826 -3.028805
v 2.984616 -3.022174 -3.028805
v 2.984616 2.977826 2.971195
v 2.984616 -3.022174 2.971195
v -3.015384 2.977826 -3.028805
v -3.015384 -3.022174 -3.028805
v -3.015384 2.977826 2.971195
v -3.015384 -3.022174 2.971195
vt 0.875000 0.500000
vt 0.625000 0.750000
vt 0.625000 0.500000
vt 0.375000 1.000000
vt 0.375000 0.750000
vt 0.625000 0.000000
vt 0.375000 0.250000
vt 0.375000 0.000000
vt 0.375000 0.500000
vt 0.125000 0.750000
vt 0.125000 0.500000
vt 0.625000 0.250000
vt 0.875000 0.750000
vt 0.625000 1.000000
vn 0.0000 1.0000 0.0000
vn 0.0000 0.0000 1.0000
vn -1.0000 0.0000 0.0000
vn 0.0000 -1.0000 0.0000
vn 0.0000 0.0000 -1.0000
usemtl Material
s off
f 5/1/1 3/2/1 1/3/1
f 3/2/2 8/4/2 4/5/2
f 7/6/3 6/7/3 8/8/3
f 2/9/4 8/10/4 6/11/4
f 5/12/5 2/9/5 6/7/5
f 5/1/1 7/13/1 3/2/1
f 3/2/2 7/14/2 8/4/2
f 7/6/3 5/12/3 6/7/3
f 2/9/4 4/5/4 8/10/4
f 5/12/5 1/3/5 2/9/5
o Cube.001
v -0.972974 -2.535899 2.657576
v -0.972974 1.652010 2.657576
v -0.972974 -2.535899 0.657576
v -0.972974 1.652010 0.657576
v 1.027026 -2.535899 2.657576
v 1.027026 1.652010 2.657576
v 1.027026 -2.535899 0.657576
v 1.027026 1.652010 0.657576
vt 0.625000 0.000000
vt 0.375000 0.250000
vt 0.375000 0.000000
vt 0.625000 0.250000
vt 0.375000 0.500000
vt 0.625000 0.500000
vt 0.375000 0.750000
vt 0.625000 0.750000
vt 0.375000 1.000000
vt 0.125000 0.750000
vt 0.125000 0.500000
vt 0.875000 0.500000
vt 0.625000 1.000000
vt 0.875000 0.750000
vn -1.0000 0.0000 0.0000
vn 0.0000 0.0000 -1.0000
vn 1.0000 0.0000 0.0000
vn 0.0000 0.0000 1.0000
vn 0.0000 -1.0000 0.0000
vn 0.0000 1.0000 0.0000
usemtl None
s off
f 10/15/6 11/16/6 9/17/6
f 12/18/7 15/19/7 11/16/7
f 16/20/8 13/21/8 15/19/8
f 14/22/9 9/23/9 13/21/9
f 15/19/10 9/24/10 11/25/10
f 12/26/11 14/22/11 16/20/11
f 10/15/6 12/18/6 11/16/6
f 12/18/7 16/20/7 15/19/7
f 16/20/8 14/22/8 13/21/8
f 14/22/9 10/27/9 9/23/9
f 15/19/10 13/21/10 9/24/10
f 12/26/11 10/28/11 14/22/11
o Cube.002
v -0.535597 -0.662988 -0.396954
v -0.535597 0.090987 -0.396954
v -0.535597 -0.662988 -2.396954
v -0.535597 0.090987 -2.396954
v 1.464403 -0.662988 -0.396954
v 1.464403 0.090987 -0.396954
v 1.464403 -0.662988 -2.396954
v 1.464403 0.090987 -2.396954
vt 0.625000 0.000000
vt 0.375000 0.250000
vt 0.375000 0.000000
vt 0.625000 0.250000
vt 0.375000 0.500000
vt 0.625000 0.500000
vt 0.375000 0.750000
vt 0.625000 0.750000
vt 0.375000 1.000000
vt 0.125000 0.750000
vt 0.125000 0.500000
vt 0.875000 0.500000
vt 0.625000 1.000000
vt 0.875000 0.750000
vn -1.0000 0.0000 0.0000
vn 0.0000 0.0000 -1.0000
vn 1.0000 0.0000 0.0000
vn 0.0000 0.0000 1.0000
vn 0.0000 -1.0000 0.0000
vn 0.0000 1.0000 0.0000
usemtl None
s off
f 18/29/12 19/30/12 17/31/12
f 20/32/13 23/33/13 19/30/13
f 24/34/14 21/35/14 23/33/14
f 22/36/15 17/37/15 21/35/15
f 23/33/16 17/38/16 19/39/16
f 20/40/17 22/36/17 24/34/17
f 18/29/12 20/32/12 19/30/12
f 20/32/13 24/34/13 23/33/13
f 24/34/14 22/36/14 21/35/14
f 22/36/15 18/41/15 17/37/15
f 23/33/16 21/35/16 17/38/16
f 20/40/17 18/42/17 22/36/17
